<svg xmlns="http://www.w3.org/2000/svg" xml:space="preserve" id="Layer_1" x="0" y="0" version="1.1" viewBox="0 0 792 612"><style>.st1{fill:#666}.st2{fill-rule:evenodd;clip-rule:evenodd;fill:#666}.st3{fill-rule:evenodd;clip-rule:evenodd;fill:#174674}</style><path d="M0 0h792v612H0z" style="fill-rule:evenodd;clip-rule:evenodd;fill:#fff"/><path d="m446.7 250.5 42.3 37-5.1 3-36.8-31.5-46.5 49.3-4-4.5z" class="st1"/><path d="M452.7 276.6h7v7h-7zm0 8.8h7v7h-7zm-8.8 0h7v7h-7zm0-8.8h7v7h-7zM511.9 321.5h8.8v8.8h-8.8zm0 11h8.8v8.8h-8.8zm-10.9 0h8.8v8.8H501zm0-11h8.8v8.8H501z" class="st2"/><path d="m234.8 338.1 57.9-71 82 89.8-11.1-3.2-70.5-77.1-50.5 61.5zM435.1 379l79.5-91.1 54.4 54.4h-8.6l-45.6-45.5-71.6 82.2z" class="st1"/><path d="m446.4 391.1 4.1 12.9h13.7l-11 8 4.1 13.1-10.9-8.1-11.1 8.1 4.3-13.1-11.1-8h13.6z" class="st2"/><path d="m413.2 396.9 2.8 8.4h9l-7.3 5.4 2.8 8.6-7.3-5.3-7.3 5.3 2.8-8.6-7.3-5.4h9zM386.8 400.7l1.8 5.6h6l-4.8 3.5 1.8 5.5-4.8-3.5-4.6 3.5 1.8-5.5-4.8-3.5h5.8zM479.4 396.9l-2.6 8.4h-9.2l7.3 5.4-2.6 8.6 7.1-5.3 7.3 5.3-2.8-8.6 7.3-5.4h-9zM505.8 400.7l-1.8 5.6h-5.8l4.6 3.5-1.8 5.5 4.8-3.5 4.8 3.5-1.8-5.5 4.6-3.5h-5.8z" class="st3"/><path d="m525.9 457.8-7.8-7.8c-34.9 19.2-71.5 10.5-86.4 7.9-6.5-1.2-16.1-4.1-20.7-8-15.6-12.9-70.9-58.6-83.8-70.9-15.1-14.4-34.7-24.7-57.9-9.3-23.1 15.4-18.9 47 9 46.5 27.9-.7 25.6-25.1 20.1-31-5.5-5.8-8-.3-8-.3 4.3 3.8 7.6 16.9-5 20.7s-24.6-14.9-7.6-26.4c17.1-11.6 42.3-5 35.7 20.7s-40.5 26.4-59.7 14.3c-27.4-17.1-18.4-59.1 8-70.4 28.4-12.1 77.2 8.6 142.7 28.7 54.3 16.6 96.6 8 124.1-3.5v-9c-64.1 27.5-118.2 11-196.3-19.6-42.3-16.4-87-15.8-105 24.2-18.1 40.2 27.9 68 27.9 68s10.6 6.1 26.1 15.1l16.4 9.6c36 20.9 83.5 48.1 94.4 53.8 18.1 9.3 30.7 1.7 39.5-12.1 8.8-13.6 3.3-20.7 3.3-20.7l-9.8-14.3c33.8 8.2 71.6 11.3 100.8-6.2" class="st3"/><path d="m317.6 200.1-5.8-.2V171l31.7-20.9 6.2 14.3v107.4h-16.8v-73h-12.5zM407.6 96.7v25.599999999999998l17.1 9.7v119.2l22-.7v-67.3h10.2v-60.1h-8.7z" class="st2"/><path d="m320.4 195.4-39.1 21.1v64.7l11.4-14.1 1 1 28.4 2.3zM495.7 198.1v10.3l-25.1-7.3v3.3l25.1 7.1v9.7l-25.1-7.3v3.3l25.1 7.1v9.6l-25.1-7.1v3.1l25.1 7.2v39l-36.9-28.6v-62.9z" class="st3"/><path d="m292.7 267.1 81.8 6.8.2-119.8-10.1 10.1-5.5-9.4-9.3 9.6-8.1-12.9 42-31.4 32 18.4V251l31-.5-50.1 53.3 22.1 24.9 27.5-33h29.1l14.2-8.3 25.1.5-79.7 91.4-60.2-22.4z" class="st3"/><path d="M294.6 305.8h7.8v7.8h-7.8zm0 9.8h7.8v7.8h-7.8zm-10 0h7.8v7.8h-7.8zm0-9.8h7.8v7.8h-7.8z" class="st2"/></svg>