<svg xmlns="http://www.w3.org/2000/svg" id="Layer_1" data-name="Layer 1" version="1.1" viewBox="0 0 791.2 350.2"><defs><style>.cls-1,.cls-2,.cls-3{stroke-width:0}.cls-1,.cls-3{fill:#666}.cls-2,.cls-3{fill-rule:evenodd}.cls-2{fill:#174674}</style></defs><path d="m431.7 128.7 35.4 30.9-4.3 2.5-30.8-26.3-38.9 41.2-3.3-3.8z" class="cls-1"/><path d="M436.7 150.5h5.8v5.8h-5.8zm0 7.3h5.8v5.8h-5.8zm-7.4 0h5.8v5.8h-5.8zm0-7.3h5.8v5.8h-5.8zM486.2 188.1h7.4v7.4h-7.4zm0 9.1h7.4v7.4h-7.4zm-9.1 0h7.4v7.4h-7.4zm0-9.1h7.4v7.4h-7.4z" class="cls-3"/><path d="m254.4 202 48.5-59.4 68.5 75.1-9.3-2.7-59-64.5-42.2 51.5zM422 236.1l66.4-76.2 45.6 45.5h-7.2l-38.2-38-59.8 68.7z" class="cls-1"/><path d="m431.4 246.2 3.5 10.9h11.3l-9.1 6.6 3.5 11-9.2-6.8-9.3 6.8 3.6-11-9.3-6.6h11.4z" class="cls-3"/><path d="m403.6 251.1 2.4 7.1h7.5l-6.1 4.4 2.3 7.2-6.1-4.4-6.1 4.4 2.4-7.2-6.1-4.4h7.5zM381.6 254.3l1.5 4.7h5l-4 2.9 1.5 4.6-4-2.9-3.9 2.9 1.5-4.6-4-2.9h4.8zM459 251.1l-2.2 7.1h-7.6l6.1 4.4-2.2 7.2 5.9-4.4 6.1 4.4-2.3-7.2 6.1-4.4h-7.5zM481.1 254.3l-1.5 4.7h-4.9l3.9 2.9-1.5 4.6 4-2.9 4 2.9-1.5-4.6 3.9-2.9h-4.9z" class="cls-2"/><path d="M11.6 293.7h281.5c-12.9-7.5-21.8-12.6-21.8-12.6s-38.5-23.3-23.3-56.9c15.1-33.5 52.5-34 87.9-20.3 65.4 25.5 110.6 39.4 164.2 16.4v7.6c-23 9.6-58.4 16.8-103.8 2.9-54.8-16.8-95.6-34.1-119.4-24-22.1 9.4-29.6 44.6-6.7 58.9 16.1 10.1 44.4 9.6 50-11.9s-15.5-27.1-29.8-17.4c-14.2 9.6-4.2 25.3 6.4 22.1 10.5-3.2 7.8-14.2 4.2-17.4 0 0 2.1-4.6 6.7.3 4.6 5 6.5 25.4-16.8 26-23.3.4-26.8-26-7.5-38.9 19.4-12.9 35.8-4.3 48.4 7.8 10.8 10.3 57.1 48.4 70.1 59.3 3.9 3.2 11.9 5.7 17.4 6.7 12.9 2.2 45.4 10 75.5-8.5h292.1l-288.3 8.1c-24.6 15-56.4 12.4-85 5.6l8.2 11.9s4.6 6-2.8 17.4c-7.4 11.5-17.9 17.9-33 10.1-9.2-4.7-48.9-27.5-79-45l-295.2-8.1Z" class="cls-2"/><path d="m323.7 86.5-4.9-.2V62.2l26.5-17.5 5.2 11.9v89.8h-14v-61H326zM398.9 0v21.400000000000002l14.3 8.2v99.6l18.5-.5V72.3h8.4V22.1h-7.2z" class="cls-3"/><path d="m326 82.6-32.7 17.6v54.2l9.6-11.8.8.8 23.7 1.9zM472.6 84.8v8.6l-20.9-6.1v2.8l20.9 6v8L451.7 98v2.8l20.9 5.9v8.1l-20.9-6v2.7l20.9 5.9v32.7l-30.8-23.9V73.6z" class="cls-2"/><path d="m302.9 142.6 68.4 5.6.1-100.2-8.4 8.5-4.6-7.9-7.8 8-6.8-10.8 35.1-26.2L405.7 35v94.1l26-.4-41.9 44.5 18.4 20.9 23.1-27.7h24.2l12-6.9 20.9.4-66.6 76.5-50.4-18.7z" class="cls-2"/><path d="M304.4 174.9h6.5v6.5h-6.5zm0 8.2h6.5v6.5h-6.5zm-8.3 0h6.5v6.5h-6.5zm0-8.2h6.5v6.5h-6.5z" class="cls-3"/><path d="M245.8 210.6v11.8h-11.1v70.9h-11.9v-70.9h-11.1v-11.8zm-70.6 0h31v11.8h-19v23.7h16.4v11.8h-16.4v23.7h19v11.8h-31v-82.9ZM145 222.4v23.7h2.8c1.7 0 2.8-.1 3.5-.3 2.2-.8 3.2-2.6 3.2-5.3V228c0-3.7-1.7-5.7-5.1-5.7h-4.3Zm-11.9-11.8h17.4c10.5 0 15.8 5.8 15.8 17.4v12.5c0 8.6-3.7 14-11.4 16.5-1.8.6-4.4.8-7.9.8h-1.9v35.4h-11.9v-82.6ZM101 222.4v23.7h2.8c1.7 0 2.8-.1 3.5-.3 2.2-.8 3.2-2.6 3.2-5.3V228c0-3.7-1.7-5.7-5.1-5.7h-4.3Zm-11.9-11.8h17.4c10.5 0 15.8 5.8 15.8 17.4v12.5c0 7.2-3.1 12.1-9.4 14.4l13.5 38.5h-13L102.6 257h-1.5v36.4H89.2v-82.7h.1ZM65.9 264l-4.6-34.4-4.6 34.4zm12.1 0 3.9 29.3H69.8l-2.4-17.5H55.2l-2.4 17.5H40.7l3.9-29.1 8.5-53.4h16.4l8.5 53.3Zm-42.9 13.2c0 11.5-5.7 17.4-17.2 17.4S.8 288.8.8 277.2v-50.5c0-11.5 5.7-17.4 17.1-17.4s17.2 5.8 17.2 17.4v11.1H23.2v-11.1c0-3.7-1.7-5.6-5.1-5.6H18c-3.5 0-5.1 1.8-5.1 5.6v50.5c0 3.7 1.7 5.6 5.1 5.6s5.3-1.8 5.3-5.6v-11.1h11.9v11.1Z" style="stroke-width:0;fill:#174674"/><path d="M760.2 210h31v11.8h-19v23.7h16.4v11.8h-16.4V281h19v11.8h-31v-82.9Zm-36.6 56.7 13.9-56.6h11.9v82.7H738v-46.4l-10.1 46.4h-8.1l-10.5-46.4v46.4h-11.5v-82.7h11.9zm-79.5-44.9v23.7h2.8c1.7 0 2.8-.1 3.5-.3 2.2-.8 3.2-2.6 3.2-5.3v-12.5c0-3.7-1.7-5.7-5.1-5.7h-4.3Zm-12-11.8h17.4c10.5 0 15.8 5.8 15.8 17.4v12.5c0 7.2-3.1 12.1-9.4 14.4l13.5 38.5h-13l-10.8-36.4h-1.5v36.4h-11.9v-82.7h.1Zm-23 53.3-4.6-34.4-4.6 34.4zm12 0 3.9 29.3h-12.1l-2.4-17.5h-12.2l-2.4 17.5h-12.1l3.9-29.1 8.5-53.4h16.4l8.5 53.3Zm-73-53.3h31v11.8h-19v23.7h16.4v11.8h-16.4V281h19v11.8h-31v-82.9Zm-45.2 0h11.9l11.2 48v-48h11.1v82.7h-11.9l-10.8-46.5v46.5h-11.5z" class="cls-1"/></svg>