<svg xmlns="http://www.w3.org/2000/svg" width="206" height="31"><g id="*-Phenix-R2" fill="none" fill-rule="evenodd" stroke="none" stroke-width="1"><g id="Phenix-Product-Section-Landing-Desktop-R2" fill="#8C827A" fill-rule="nonzero" transform="translate(-617 -82)"><g id="Navigation/Desktop/Global-Header/_Standard" transform="translate(0 48)"><g id="Group" transform="translate(617.03 34.23)"><path id="Shape" d="M10.4 16.7c5.54 0 9.31-2.87 9.31-7.32v-.07c0-4.72-3.7-7.19-9.03-7.19H2.19V16.7zM0 0h10.81C17.38 0 21.9 3.35 21.9 9.1v.07c0 6.23-5.41 9.51-11.63 9.51H2.2v11.09H.01V0z"/><path id="Path" d="M37.84 0h2.19v13.82h19.09V0h2.19v29.84h-2.19V15.88H40.03v13.96h-2.19zM79.58 0h21.22v2.05H81.77v11.71h17.11v2.05H81.77v11.97H101v2.06H79.58zM117.49 0h2.06l20.59 25.94V0h2.12v29.84h-1.71L119.61 3.35v26.49h-2.12z"/><path id="Rectangle" d="M160.81 0H163v29.84h-2.19z"/><path id="Path" d="M191.12 14.65 179.7 0h2.6l10.19 13.14L202.62 0h2.6l-11.43 14.58 11.91 15.26h-2.67l-10.61-13.76-10.53 13.76h-2.6z"/></g></g></g></g></svg>