<?xml version="1.0" encoding="utf-8"?>
<!-- Generator: Adobe Illustrator 28.0.0, SVG Export Plug-In . SVG Version: 6.00 Build 0)  -->
<svg version="1.1" id="Layer_1" xmlns="http://www.w3.org/2000/svg" xmlns:xlink="http://www.w3.org/1999/xlink" x="0px" y="0px"
	 viewBox="0 0 792 612" style="enable-background:new 0 0 792 612;" xml:space="preserve">
<style type="text/css">
	.st0{fill-rule:evenodd;clip-rule:evenodd;fill:#FFFFFF;}
	.st1{fill:#666666;}
	.st2{fill-rule:evenodd;clip-rule:evenodd;fill:#666666;}
	.st3{fill-rule:evenodd;clip-rule:evenodd;fill:#174674;}
</style>
<rect class="st0" width="792" height="612"/>
<g>
	<polygon class="st1" points="446.7,250.5 489,287.5 483.9,290.5 447.1,259 400.6,308.3 396.6,303.8 	"/>
	<path class="st2" d="M452.7,276.6h7v7h-7V276.6z M452.7,285.4h7v7h-7V285.4z M443.9,285.4h7v7h-7V285.4z M443.9,276.6h7v7h-7V276.6
		z"/>
	<path class="st2" d="M511.9,321.5h8.8v8.8h-8.8V321.5z M511.9,332.5h8.8v8.8h-8.8V332.5z M501,332.5h8.8v8.8H501V332.5z M501,321.5
		h8.8v8.8H501V321.5z"/>
	<polygon class="st1" points="234.8,338.1 292.7,267.1 374.7,356.9 363.6,353.7 293.1,276.6 242.6,338.1 	"/>
	<polygon class="st1" points="435.1,379 514.6,287.9 569,342.3 560.4,342.3 514.8,296.8 443.2,379 	"/>
	<polygon class="st2" points="446.4,391.1 450.5,404 464.2,404 453.2,412 457.3,425.1 446.4,417 435.3,425.1 439.6,412 428.5,404 
		442.1,404 	"/>
	<polygon class="st3" points="413.2,396.9 416,405.3 425,405.3 417.7,410.7 420.5,419.3 413.2,414 405.9,419.3 408.7,410.7 
		401.4,405.3 410.4,405.3 	"/>
	<polygon class="st3" points="386.8,400.7 388.6,406.3 394.6,406.3 389.8,409.8 391.6,415.3 386.8,411.8 382.2,415.3 384,409.8 
		379.2,406.3 385,406.3 	"/>
	<polygon class="st3" points="479.4,396.9 476.8,405.3 467.6,405.3 474.9,410.7 472.3,419.3 479.4,414 486.7,419.3 483.9,410.7 
		491.2,405.3 482.2,405.3 	"/>
	<polygon class="st3" points="505.8,400.7 504,406.3 498.2,406.3 502.8,409.8 501,415.3 505.8,411.8 510.6,415.3 508.8,409.8 
		513.4,406.3 507.6,406.3 	"/>
	<path class="st3" d="M525.9,457.8l-7.8-7.8c-34.9,19.2-71.5,10.5-86.4,7.9c-6.5-1.2-16.1-4.1-20.7-8
		c-15.6-12.9-70.9-58.6-83.8-70.9c-15.1-14.4-34.7-24.7-57.9-9.3c-23.1,15.4-18.9,47,9,46.5c27.9-0.7,25.6-25.1,20.1-31
		c-5.5-5.8-8-0.3-8-0.3c4.3,3.8,7.6,16.9-5,20.7c-12.6,3.8-24.6-14.9-7.6-26.4c17.1-11.6,42.3-5,35.7,20.7s-40.5,26.4-59.7,14.3
		c-27.4-17.1-18.4-59.1,8-70.4c28.4-12.1,77.2,8.6,142.7,28.7c54.3,16.6,96.6,8,124.1-3.5V360c-64.1,27.5-118.2,11-196.3-19.6
		c-42.3-16.4-87-15.8-105,24.2c-18.1,40.2,27.9,68,27.9,68s10.6,6.1,26.1,15.1l16.4,9.6c36,20.9,83.5,48.1,94.4,53.8
		c18.1,9.3,30.7,1.7,39.5-12.1c8.8-13.6,3.3-20.7,3.3-20.7l-9.8-14.3C458.9,472.2,496.7,475.3,525.9,457.8z"/>
	<polygon class="st2" points="317.6,200.1 311.8,199.9 311.8,171 343.5,150.1 349.7,164.4 349.7,271.8 332.9,271.8 332.9,198.8 
		320.4,198.8 	"/>
	<polygon class="st2" points="407.6,96.7 407.6,117.1 407.6,122.3 424.7,132 424.7,251.2 446.7,250.5 446.7,183.2 456.9,183.2 
		456.9,123.1 448.2,123.1 	"/>
	<polygon class="st3" points="320.4,195.4 281.3,216.5 281.3,281.2 292.7,267.1 293.7,268.1 322.1,270.4 	"/>
	<polygon class="st3" points="495.7,198.1 495.7,208.4 470.6,201.1 470.6,204.4 495.7,211.5 495.7,221.2 470.6,213.9 470.6,217.2 
		495.7,224.3 495.7,233.9 470.6,226.8 470.6,229.9 495.7,237.1 495.7,276.1 458.8,247.5 458.8,184.6 	"/>
	<polygon class="st3" points="292.7,267.1 374.5,273.9 374.7,154.1 364.6,164.2 359.1,154.8 349.8,164.4 341.7,151.5 383.7,120.1 
		415.7,138.5 415.7,251 446.7,250.5 396.6,303.8 418.7,328.7 446.2,295.7 475.3,295.7 489.5,287.4 514.6,287.9 434.9,379.3 
		374.7,356.9 	"/>
	<path class="st2" d="M294.6,305.8h7.8v7.8h-7.8V305.8z M294.6,315.6h7.8v7.8h-7.8V315.6z M284.6,315.6h7.8v7.8h-7.8V315.6z
		 M284.6,305.8h7.8v7.8h-7.8V305.8z"/>
</g>
</svg>
