<?xml version="1.0" encoding="utf-8"?>
<!-- Generator: Adobe Illustrator 27.7.0, SVG Export Plug-In . SVG Version: 6.00 Build 0)  -->
<svg version="1.1" id="Layer_1" xmlns="http://www.w3.org/2000/svg" xmlns:xlink="http://www.w3.org/1999/xlink" x="0px" y="0px"
	 viewBox="0 0 792 612" style="enable-background:new 0 0 792 612;" xml:space="preserve">
<style type="text/css">
	.st0{fill-rule:evenodd;clip-rule:evenodd;fill:#FFFFFF;}
	.st1{fill:#666666;}
	.st2{fill-rule:evenodd;clip-rule:evenodd;fill:#666666;}
	.st3{fill-rule:evenodd;clip-rule:evenodd;fill:#174674;}
	.st4{fill:#174674;}
</style>
<rect class="st0" width="792" height="612"/>
<polygon class="st1" points="421.7,272.6 447.2,294.9 444.1,296.7 421.9,277.7 393.9,307.4 391.5,304.7 "/>
<path class="st2" d="M425.3,288.3h4.2v4.2h-4.2V288.3z M425.3,293.6h4.2v4.2h-4.2V293.6z M420,293.6h4.2v4.2H420V293.6z M420,288.3
	h4.2v4.2H420V288.3z"/>
<path class="st2" d="M461,315.4h5.3v5.3H461V315.4z M461,322h5.3v5.3H461V322z M454.4,322h5.3v5.3h-5.3V322z M454.4,315.4h5.3v5.3
	h-5.3V315.4z"/>
<polygon class="st1" points="294,325.4 328.9,282.6 378.3,336.7 371.6,334.8 329.1,288.3 298.7,325.4 "/>
<polygon class="st1" points="414.7,350 462.6,295.1 495.4,327.9 490.2,327.9 462.7,300.5 419.6,350 "/>
<polygon class="st2" points="421.5,357.3 424,365.1 432.2,365.1 425.6,369.9 428.1,377.8 421.5,372.9 414.8,377.8 417.4,369.9 
	410.7,365.1 418.9,365.1 "/>
<polygon class="st3" points="401.5,360.8 403.2,365.9 408.6,365.9 404.2,369.1 405.9,374.3 401.5,371.1 397.1,374.3 398.8,369.1 
	394.4,365.9 399.8,365.9 "/>
<polygon class="st3" points="385.6,363.1 386.7,366.5 390.3,366.5 387.4,368.6 388.5,371.9 385.6,369.8 382.8,371.9 383.9,368.6 
	381,366.5 384.5,366.5 "/>
<polygon class="st3" points="441.4,360.8 439.8,365.9 434.3,365.9 438.7,369.1 437.1,374.3 441.4,371.1 445.8,374.3 444.1,369.1 
	448.5,365.9 443.1,365.9 "/>
<polygon class="st3" points="457.3,363.1 456.2,366.5 452.7,366.5 455.5,368.6 454.4,371.9 457.3,369.8 460.2,371.9 459.1,368.6 
	461.9,366.5 458.4,366.5 "/>
<path class="st3" d="M119.1,391.5h202.8c-9.3-5.4-15.7-9.1-15.7-9.1s-27.7-16.8-16.8-41c10.9-24.1,37.8-24.5,63.3-14.6
	c47.1,18.4,79.7,28.4,118.3,11.8v5.5c-16.6,6.9-42.1,12.1-74.8,2.1c-39.5-12.1-68.9-24.6-86-17.3c-15.9,6.8-21.3,32.1-4.8,42.4
	c11.6,7.3,32,6.9,36-8.6c4-15.5-11.2-19.5-21.5-12.5c-10.2,6.9-3,18.2,4.6,15.9c7.6-2.3,5.6-10.2,3-12.5c0,0,1.5-3.3,4.8,0.2
	c3.3,3.6,4.7,18.3-12.1,18.7c-16.8,0.3-19.3-18.7-5.4-28c14-9.3,25.8-3.1,34.9,5.6c7.8,7.4,41.1,34.9,50.5,42.7
	c2.8,2.3,8.6,4.1,12.5,4.8c9.3,1.6,32.7,7.2,54.4-6.1h10.3h6.6h193.5l-207.7,5.8c-17.7,10.8-40.6,8.9-61.2,4l5.9,8.6
	c0,0,3.3,4.3-2,12.5c-5.3,8.3-12.9,12.9-23.8,7.3c-6.6-3.4-35.2-19.8-56.9-32.4L119.1,391.5z"/>
<polygon class="st2" points="343.9,242.2 340.4,242.1 340.4,224.7 359.5,212.1 363.2,220.7 363.2,285.4 353.1,285.4 353.1,241.4 
	345.6,241.4 "/>
<polygon class="st2" points="398.1,179.9 398.1,192.2 398.1,195.3 408.4,201.2 408.4,273 421.7,272.6 421.7,232 427.8,232 
	427.8,195.8 422.6,195.8 "/>
<polygon class="st3" points="345.6,239.4 322,252.1 322,291.1 328.9,282.6 329.5,283.2 346.6,284.6 "/>
<polygon class="st3" points="451.2,241 451.2,247.2 436.1,242.8 436.1,244.8 451.2,249.1 451.2,254.9 436.1,250.5 436.1,252.5 
	451.2,256.8 451.2,262.6 436.1,258.3 436.1,260.2 451.2,264.5 451.2,288 429,270.8 429,232.9 "/>
<polygon class="st3" points="328.9,282.6 378.2,286.7 378.3,214.5 372.2,220.6 368.9,214.9 363.3,220.7 358.4,212.9 383.7,194 
	403,205.1 403,272.9 421.7,272.6 391.5,304.7 404.8,319.7 421.4,299.8 438.9,299.8 447.5,294.8 462.6,295.1 414.6,350.2 
	378.3,336.7 "/>
<path class="st2" d="M330,305.9h4.7v4.7H330V305.9z M330,311.8h4.7v4.7H330V311.8z M324,311.8h4.7v4.7H324V311.8z M324,305.9h4.7
	v4.7H324V305.9z"/>
<path class="st4" d="M287.8,331.6v8.5h-8v51.1h-8.6v-51.1h-8v-8.5H287.8z M236.9,331.6h22.3v8.5h-13.7v17.1h11.8v8.5h-11.8v17.1
	h13.7v8.5h-22.3V331.6z M215.2,340.1v17.1h2c1.2,0,2-0.1,2.5-0.2c1.6-0.6,2.3-1.9,2.3-3.8v-9c0-2.7-1.2-4.1-3.7-4.1H215.2z
	 M206.6,331.6h12.5c7.6,0,11.4,4.2,11.4,12.5v9c0,6.2-2.7,10.1-8.2,11.9c-1.3,0.4-3.2,0.6-5.7,0.6h-1.4v25.5h-8.6V331.6z
	 M183.5,340.1v17.1h2c1.2,0,2-0.1,2.5-0.2c1.6-0.6,2.3-1.9,2.3-3.8v-9c0-2.7-1.2-4.1-3.7-4.1H183.5z M174.9,331.6h12.5
	c7.6,0,11.4,4.2,11.4,12.5v9c0,5.2-2.2,8.7-6.8,10.4l9.7,27.7h-9.4l-7.8-26.2l-1.1,0.1v26.1h-8.6V331.6z M158.2,370.1l-3.3-24.8
	l-3.3,24.8H158.2z M166.9,370.1l2.8,21.1H161l-1.7-12.6h-8.8l-1.7,12.6h-8.7l2.8-21l6.1-38.5h11.8L166.9,370.1z M136,379.6
	c0,8.3-4.1,12.5-12.4,12.5c-8.2,0-12.3-4.2-12.3-12.5v-36.4c0-8.3,4.1-12.5,12.3-12.5c8.2,0,12.4,4.2,12.4,12.5v8h-8.6v-8
	c0-2.7-1.2-4-3.7-4h-0.1c-2.5,0-3.7,1.3-3.7,4v36.4c0,2.7,1.2,4,3.7,4c2.5,0,3.8-1.3,3.8-4v-8h8.6V379.6z"/>
<path class="st1" d="M658.4,331.2h22.3v8.5H667v17.1h11.8v8.5H667v17.1h13.7v8.5h-22.3V331.2z M632,372l10-40.8h8.6v59.6h-8.2v-33.4
	l-7.3,33.4h-5.8l-7.6-33.4v33.4h-8.3v-59.6h8.6L632,372z M574.7,339.7v17.1h2c1.2,0,2-0.1,2.5-0.2c1.6-0.6,2.3-1.9,2.3-3.8v-9
	c0-2.7-1.2-4.1-3.7-4.1H574.7z M566.1,331.2h12.5c7.6,0,11.4,4.2,11.4,12.5v9c0,5.2-2.2,8.7-6.8,10.4l9.7,27.7h-9.4l-7.8-26.2
	l-1.1,0.1v26.1h-8.6V331.2z M549.5,369.6l-3.3-24.8l-3.3,24.8H549.5z M558.2,369.6l2.8,21.1h-8.7l-1.7-12.6h-8.8l-1.7,12.6h-8.7
	l2.8-21l6.1-38.5h11.8L558.2,369.6z M505.6,331.2h22.3v8.5h-13.7v17.1h11.8v8.5h-11.8v17.1h13.7v8.5h-22.3V331.2z M473,331.2h8.6
	l8.1,34.6v-34.6h8v59.6h-8.6l-7.8-33.5v33.5H473V331.2z"/>
</svg>
