<?xml version="1.0" encoding="UTF-8"?>
<svg id="Layer_1" data-name="Layer 1" xmlns="http://www.w3.org/2000/svg" version="1.1" viewBox="0 0 791.2 350.2">
  <defs>
    <style>
      .cls-1, .cls-2, .cls-3, .cls-4 {
        stroke-width: 0px;
      }

      .cls-1, .cls-3 {
        fill: #666;
      }

      .cls-2, .cls-3 {
        fill-rule: evenodd;
      }

      .cls-2, .cls-4 {
        fill: #174674;
      }
    </style>
  </defs>
  <polygon class="cls-1" points="431.7 128.7 467.1 159.6 462.8 162.1 432 135.8 393.1 177 389.8 173.2 431.7 128.7"/>
  <path class="cls-3" d="M436.7,150.5h5.8v5.8h-5.8v-5.8ZM436.7,157.8h5.8v5.8h-5.8v-5.8ZM429.3,157.8h5.8v5.8h-5.8v-5.8ZM429.3,150.5h5.8v5.8h-5.8v-5.8Z"/>
  <path class="cls-3" d="M486.2,188.1h7.4v7.4h-7.4v-7.4ZM486.2,197.2h7.4v7.4h-7.4v-7.4ZM477.1,197.2h7.4v7.4h-7.4v-7.4ZM477.1,188.1h7.4v7.4h-7.4v-7.4Z"/>
  <polygon class="cls-1" points="254.4 202 302.9 142.6 371.4 217.7 362.1 215 303.1 150.5 260.9 202 254.4 202"/>
  <polygon class="cls-1" points="422 236.1 488.4 159.9 534 205.4 526.8 205.4 488.6 167.4 428.8 236.1 422 236.1"/>
  <polygon class="cls-3" points="431.4 246.2 434.9 257.1 446.2 257.1 437.1 263.7 440.6 274.7 431.4 267.9 422.1 274.7 425.7 263.7 416.4 257.1 427.8 257.1 431.4 246.2"/>
  <polygon class="cls-2" points="403.6 251.1 406 258.2 413.5 258.2 407.4 262.6 409.7 269.8 403.6 265.4 397.5 269.8 399.9 262.6 393.8 258.2 401.3 258.2 403.6 251.1"/>
  <polygon class="cls-2" points="381.6 254.3 383.1 259 388.1 259 384.1 261.9 385.6 266.5 381.6 263.6 377.7 266.5 379.2 261.9 375.2 259 380 259 381.6 254.3"/>
  <polygon class="cls-2" points="459 251.1 456.8 258.2 449.2 258.2 455.3 262.6 453.1 269.8 459 265.4 465.1 269.8 462.8 262.6 468.9 258.2 461.4 258.2 459 251.1"/>
  <polygon class="cls-2" points="481.1 254.3 479.6 259 474.7 259 478.6 261.9 477.1 266.5 481.1 263.6 485.1 266.5 483.6 261.9 487.5 259 482.6 259 481.1 254.3"/>
  <path class="cls-2" d="M11.6,293.7h281.5c-12.9-7.5-21.8-12.6-21.8-12.6,0,0-38.5-23.3-23.3-56.9,15.1-33.5,52.5-34,87.9-20.3,65.4,25.5,110.6,39.4,164.2,16.4v7.6c-23,9.6-58.4,16.8-103.8,2.9-54.8-16.8-95.6-34.1-119.4-24-22.1,9.4-29.6,44.6-6.7,58.9,16.1,10.1,44.4,9.6,50-11.9s-15.5-27.1-29.8-17.4c-14.2,9.6-4.2,25.3,6.4,22.1,10.5-3.2,7.8-14.2,4.2-17.4,0,0,2.1-4.6,6.7.3,4.6,5,6.5,25.4-16.8,26-23.3.4-26.8-26-7.5-38.9,19.4-12.9,35.8-4.3,48.4,7.8,10.8,10.3,57.1,48.4,70.1,59.3,3.9,3.2,11.9,5.7,17.4,6.7,12.9,2.2,45.4,10,75.5-8.5h292.1l-288.3,8.1c-24.6,15-56.4,12.4-85,5.6l8.2,11.9s4.6,6-2.8,17.4c-7.4,11.5-17.9,17.9-33,10.1-9.2-4.7-48.9-27.5-79-45l-295.2-8.1Z"/>
  <polygon class="cls-3" points="323.7 86.5 318.8 86.3 318.8 62.2 345.3 44.7 350.5 56.6 350.5 146.4 336.5 146.4 336.5 85.4 326 85.4 323.7 86.5"/>
  <polygon class="cls-3" points="398.9 0 398.9 17.1 398.9 21.4 413.2 29.6 413.2 129.2 431.7 128.7 431.7 72.3 440.1 72.3 440.1 22.1 432.9 22.1 398.9 0"/>
  <polygon class="cls-2" points="326 82.6 293.3 100.2 293.3 154.4 302.9 142.6 303.7 143.4 327.4 145.3 326 82.6"/>
  <polygon class="cls-2" points="472.6 84.8 472.6 93.4 451.7 87.3 451.7 90.1 472.6 96.1 472.6 104.1 451.7 98 451.7 100.8 472.6 106.7 472.6 114.8 451.7 108.8 451.7 111.5 472.6 117.4 472.6 150.1 441.8 126.2 441.8 73.6 472.6 84.8"/>
  <polygon class="cls-2" points="302.9 142.6 371.3 148.2 371.4 48 363 56.5 358.4 48.6 350.6 56.6 343.8 45.8 378.9 19.6 405.7 35 405.7 129.1 431.7 128.7 389.8 173.2 408.2 194.1 431.3 166.4 455.5 166.4 467.5 159.5 488.4 159.9 421.8 236.4 371.4 217.7 302.9 142.6"/>
  <path class="cls-3" d="M304.4,174.9h6.5v6.5h-6.5v-6.5ZM304.4,183.1h6.5v6.5h-6.5v-6.5ZM296.1,183.1h6.5v6.5h-6.5v-6.5ZM296.1,174.9h6.5v6.5h-6.5v-6.5Z"/>
  <path class="cls-4" d="M245.8,210.6v11.8h-11.1v70.9h-11.9v-70.9h-11.1v-11.8h34.1ZM175.2,210.6h31v11.8h-19v23.7h16.4v11.8h-16.4v23.7h19v11.8h-31v-82.9h0ZM145,222.4v23.7h2.8c1.7,0,2.8-.1,3.5-.3,2.2-.8,3.2-2.6,3.2-5.3v-12.5c0-3.7-1.7-5.7-5.1-5.7h-4.3ZM133.1,210.6h17.4c10.5,0,15.8,5.8,15.8,17.4v12.5c0,8.6-3.7,14-11.4,16.5-1.8.6-4.4.8-7.9.8h-1.9v35.4h-11.9v-82.6ZM101,222.4v23.7h2.8c1.7,0,2.8-.1,3.5-.3,2.2-.8,3.2-2.6,3.2-5.3v-12.5c0-3.7-1.7-5.7-5.1-5.7h-4.3ZM89.1,210.6h17.4c10.5,0,15.8,5.8,15.8,17.4v12.5c0,7.2-3.1,12.1-9.4,14.4l13.5,38.5h-13l-10.8-36.4h-1.5v36.4h-11.9v-82.7h.1ZM65.9,264l-4.6-34.4-4.6,34.4h9.2ZM78,264l3.9,29.3h-12.1l-2.4-17.5h-12.2l-2.4,17.5h-12.1l3.9-29.1,8.5-53.4h16.4l8.5,53.3ZM35.1,277.2c0,11.5-5.7,17.4-17.2,17.4s-17.1-5.8-17.1-17.4v-50.5c0-11.5,5.7-17.4,17.1-17.4s17.2,5.8,17.2,17.4v11.1h-11.9v-11.1c0-3.7-1.7-5.6-5.1-5.6h-.1c-3.5,0-5.1,1.8-5.1,5.6v50.5c0,3.7,1.7,5.6,5.1,5.6s5.3-1.8,5.3-5.6v-11.1h11.9v11.1h0Z"/>
  <path class="cls-1" d="M760.2,210h31v11.8h-19v23.7h16.4v11.8h-16.4v23.7h19v11.8h-31v-82.9ZM723.6,266.7l13.9-56.6h11.9v82.7h-11.4v-46.4l-10.1,46.4h-8.1l-10.5-46.4v46.4h-11.5v-82.7h11.9l13.9,56.6ZM644.1,221.8v23.7h2.8c1.7,0,2.8-.1,3.5-.3,2.2-.8,3.2-2.6,3.2-5.3v-12.5c0-3.7-1.7-5.7-5.1-5.7h-4.3ZM632.1,210h17.4c10.5,0,15.8,5.8,15.8,17.4v12.5c0,7.2-3.1,12.1-9.4,14.4l13.5,38.5h-13l-10.8-36.4h-1.5v36.4h-11.9v-82.7h.1ZM609.1,263.3l-4.6-34.4-4.6,34.4h9.2ZM621.1,263.3l3.9,29.3h-12.1l-2.4-17.5h-12.2l-2.4,17.5h-12.1l3.9-29.1,8.5-53.4h16.4l8.5,53.3ZM548.1,210h31v11.8h-19v23.7h16.4v11.8h-16.4v23.7h19v11.8h-31v-82.9h0ZM502.9,210h11.9l11.2,48v-48h11.1v82.7h-11.9l-10.8-46.5v46.5h-11.5v-82.7Z"/>
</svg>